Coordinates
version=1
nRows=24
nColumns=24
inDegrees=yes

Units are S.I. units (second, meters, Newtons, ...)
Angles are in degrees.

endheader
time	pelvis_tilt	pelvis_list	pelvis_rotation	pelvis_tx	pelvis_ty	pelvis_tz	hip_flexion_r	hip_adduction_r	hip_rotation_r	knee_angle_r	ankle_angle_r	subtalar_angle_r	mtp_angle_r	hip_flexion_l	hip_adduction_l	hip_rotation_l	knee_angle_l	ankle_angle_l	subtalar_angle_l	mtp_angle_l	lumbar_extension	lumbar_bending	lumbar_rotation
      1.36000000	     18.12707576	      4.19990097	      3.11124238	     -0.52254585	      0.92251972	      0.26062686	      9.69770068	     -3.11892849	     -3.64143734	    -11.03765564	     12.68044058	      2.44589405	     40.38082262	    -34.69679282	      4.19459756	     -3.64024326	    -13.21516226	     30.06296429	     13.86835890	     20.06249061	    -34.74479746	     -1.35250945	     -1.96201734
      1.36500000	     18.12011752	      4.00081329	      3.24167317	     -0.51477679	      0.92141284	      0.26099227	      9.85331341	     -2.81680563	     -3.36937603	    -11.98216274	     12.90676104	      2.25007357	     40.33617534	    -34.81857936	      3.80767700	     -3.90353596	    -13.97600498	     30.20471882	     14.32288224	     20.37034685	    -34.63996973	     -1.05236982	     -1.98921884
      1.37000000	     18.13177191	      3.84713631	      3.27140525	     -0.50712560	      0.92034216	      0.26133655	      9.99796790	     -2.55281833	     -2.95349816	    -13.02202433	     13.06937347	      2.08113903	     40.01352280	    -34.92793630	      3.54191379	     -4.07936379	    -14.77107231	     30.07938747	     14.38881750	     22.46726665	    -34.55917280	     -0.83441805	     -1.89403308
      1.37500000	     18.22282834	      3.83387043	      3.45104977	     -0.49954940	      0.91954778	      0.26138551	     10.13051112	     -2.47716778	     -3.13904923	    -14.34064905	     12.56072571	      2.03874246	     41.37075689	    -35.11706669	      3.33706075	     -3.81936751	    -15.56709008	     29.86954078	     14.19473773	     23.78117429	    -34.58598107	     -0.64711201	     -2.04986963
      1.38000000	     18.07104239	      3.80112299	      3.42257655	     -0.49196291	      0.91839654	      0.26168502	     10.69818363	     -2.35642424	     -3.14724440	    -15.93745227	     10.82462676	      1.10720097	     43.56995660	    -35.00951426	      3.24839692	     -3.75538874	    -16.42690717	     29.69508587	     14.09964290	     24.88965512	    -34.35514668	     -0.57107175	     -1.96828337
      1.38500000	     18.05365845	      3.66231227	      3.69697863	     -0.48472773	      0.91775902	      0.26141172	     11.03920261	     -2.19958959	     -3.43883858	    -17.35814265	      8.78410194	      0.07762256	     43.49262178	    -34.92112557	      2.90573622	     -3.33632082	    -17.46118197	     29.63045370	     13.91905227	     25.14810251	    -34.29435155	     -0.21354691	     -2.06149328
      1.39000000	     17.83301041	      3.51435595	      3.70903384	     -0.47756727	      0.91691466	      0.26167331	     11.68026375	     -1.99340808	     -3.20341426	    -18.74562726	      7.42404334	     -1.03060017	     44.06760844	    -34.56089827	      2.71443426	     -3.12058490	    -18.57599263	     29.14934367	     13.58469534	     28.16347390	    -34.02697127	     -0.00758590	     -1.84049409
      1.39500000	     17.55670846	      3.39850541	      3.77921099	     -0.47028445	      0.91616055	      0.26158854	     12.37116953	     -1.89864938	     -3.09456359	    -20.17569459	      7.50654052	     -1.01480197	     44.06373025	    -34.13987570	      2.58769633	     -2.59035900	    -19.68254734	     28.75722496	     12.96775679	     28.96850584	    -33.68723132	      0.22724123	     -1.77634706
      1.40000000	     17.52533324	      3.28773286	      3.96690528	     -0.46306843	      0.91596842	      0.26139619	     12.70591287	     -1.83260924	     -3.24378687	    -21.49856234	      7.95263194	     -0.66135588	     45.18151976	    -33.88298692	      2.36999010	     -2.06540260	    -20.93476052	     28.13951039	     12.34206485	     31.64615564	    -33.62747729	      0.51926144	     -1.79402960
      1.40500000	     17.38011748	      3.16984923	      3.98917599	     -0.45570782	      0.91558542	      0.26141935	     13.23719948	     -1.76166453	     -3.34534117	    -22.97354083	      8.33379174	     -0.23735485	     45.15041562	    -33.46636459	      2.25312584	     -1.72046853	    -22.29108417	     27.50798879	     11.70722210	     33.57553470	    -33.43701424	      0.73427068	     -1.63434468
      1.41000000	     17.36679472	      3.05194797	      4.05869508	     -0.44837834	      0.91550977	      0.26138148	     13.60887516	     -1.70671854	     -3.52574803	    -24.50251294	      8.26522428	     -0.21483208	     44.58003216	    -33.12220506	      2.10468610	     -1.38278207	    -23.73324818	     26.76947799	     11.12428054	     35.72737253	    -33.38216519	      0.99406272	     -1.56697771
      1.41500000	     17.21163184	      2.88012746	      4.08506557	     -0.44080801	      0.91527081	      0.26152485	     14.04721671	     -1.56274740	     -3.57447456	    -25.91231988	      8.15441193	     -0.67858807	     44.32066580	    -32.51373335	      1.89527850	     -1.35376939	    -25.41288676	     26.11525767	     10.97362227	     36.50911801	    -33.15098631	      1.25174427	     -1.45047005
      1.42000000	     17.22655641	      2.63121574	      4.09390518	     -0.43326135	      0.91528978	      0.26168890	     14.20351541	     -1.33319438	     -3.75512814	    -27.15788493	      8.60015921	     -0.47621952	     42.64900369	    -32.02346663	      1.60799883	     -1.42996909	    -27.14414776	     24.93929096	     10.42620227	     40.53625915	    -33.10181277	      1.58572100	     -1.23676731
      1.42500000	     17.17880462	      2.37254270	      4.12798464	     -0.42576655	      0.91533335	      0.26199194	     14.34695866	     -1.04902795	     -3.90945629	    -28.22544832	      9.39582496	     -0.29607478	     41.30373290	    -31.33147390	      1.26120774	     -1.62176412	    -29.10137488	     23.81850761	     10.10671063	     43.23348975	    -33.00488610	      1.92018538	     -0.92879887
      1.43000000	     17.15215558	      2.10845830	      4.21115171	     -0.41849607	      0.91555961	      0.26224613	     14.37027321	     -0.74918811	     -4.13043522	    -29.08151858	     10.17391483	      0.01672894	     39.85878815	    -30.53844082	      0.86894157	     -1.79770437	    -31.20427900	     22.53709930	      9.72248951	     46.20056082	    -32.94385601	      2.29465523	     -0.77847792
      1.43500000	     17.10114309	      1.73896883	      4.19510919	     -0.41109720	      0.91579463	      0.26271742	     14.35555815	     -0.28497869	     -4.18515586	    -29.79676394	     10.64800298	      0.29085474	     38.22054994	    -29.64705429	      0.37595554	     -2.22721473	    -33.39166943	     21.04903443	      9.47301658	     49.49114047	    -32.83979625	      2.71149407	     -0.55038911
      1.44000000	     17.05627017	      1.30675891	      4.41737523	     -0.40386618	      0.91614678	      0.26308560	     14.20535760	      0.24385120	     -4.40116763	    -30.27141447	     11.01255659	      0.19920878	     36.56717945	    -28.60606341	     -0.32069746	     -2.45470875	    -35.75033424	     19.49299018	      9.17766675	     52.74047733	    -32.72916227	      3.29037585	     -0.41311064
      1.44500000	     16.84995049	      0.77010847	      4.59340493	     -0.39664195	      0.91619758	      0.26350254	     14.19751572	      0.91049218	     -4.54128175	    -30.65363439	     11.49001633	      0.01133190	     35.23220322	    -27.28781074	     -1.10026792	     -2.77411798	    -38.27325481	     17.92431928	      8.97956034	     55.18784681	    -32.45951278	      3.92860503	     -0.22438150
      1.45000000	     16.62355413	      0.26578997	      4.77713311	     -0.38969211	      0.91628906	      0.26373842	     14.17356698	      1.53389397	     -4.66560147	    -30.94738468	     11.96376621	     -0.14567927	     34.08018145	    -25.85030733	     -1.81928664	     -2.93178665	    -40.84591706	     15.95452927	      8.52309081	     58.36855970	    -32.20271360	      4.54864712	      0.00381859
      1.45500000	     16.15318216	     -0.28331810	      4.95862718	     -0.38288120	      0.91596352	      0.26414957	     14.41530923	      2.23094247	     -4.66544085	    -31.18773871	     12.32059822	     -0.46791784	     33.39236320	    -24.01133968	     -2.58294775	     -3.03455470	    -43.63848358	     14.00699517	      8.16639489	     59.79076456	    -31.68106686	      5.18515090	      0.19824140
      1.46000000	     15.65756353	     -0.87585832	      5.28249893	     -0.37615872	      0.91563030	      0.26440868	     14.62767480	      2.97057052	     -4.73514491	    -31.30632808	     12.67574886	     -0.99376565	     31.88373069	    -22.06893972	     -3.42980200	     -2.90404145	    -46.44368753	     12.24121866	      7.71634111	     61.33435940	    -31.12393969	      5.93140364	      0.21591340
      1.46500000	     15.04612027	     -1.58777775	      5.68151809	     -0.36965104	      0.91497771	      0.26458060	     14.97912436	      3.81373211	     -4.83906585	    -31.36255784	     12.90337532	     -1.53154282	     31.40597981	    -19.95553628	     -4.39896963	     -2.66311501	    -49.25557776	     11.23714836	      7.58731390	     61.22668770	    -30.42311363	      6.81309669	      0.28816849
      1.47000000	     14.52593404	     -2.28290234	      6.09347458	     -0.36321320	      0.91464333	      0.26442975	     15.17749679	      4.61575590	     -4.95425605	    -31.31387611	     13.22065423	     -2.00114886	     29.87217880	    -17.95473210	     -5.24974470	     -2.19040236	    -51.96972904	     10.74142567	      7.34054102	     58.91429324	    -29.84094856	      7.70935816	      0.39812683
      1.47500000	     13.86376726	     -3.04400095	      6.50760439	     -0.35692835	      0.91401796	      0.26447052	     15.54851968	      5.48710332	     -5.01539455	    -31.22931252	     13.44584467	     -2.66429312	     29.04833991	    -15.72941902	     -6.12859116	     -1.64261022	    -54.75006923	     10.44378347	      6.69781436	     54.35829513	    -29.09320888	      8.65523050	      0.40546049
